<svg xmlns="http://www.w3.org/2000/svg" xmlns:xlink="http://www.w3.org/1999/xlink" width="500" zoomAndPan="magnify" viewBox="0 0 375 374.999991" height="500" preserveAspectRatio="xMidYMid meet" version="1.0"><defs><g/><clipPath id="46e844a598"><path d="M 57.96875 57.96875 L 317.03125 57.96875 L 317.03125 317.03125 L 57.96875 317.03125 Z M 57.96875 57.96875 " clip-rule="nonzero"/></clipPath><clipPath id="6ca13a884e"><path d="M 187.5 57.96875 C 115.960938 57.96875 57.96875 115.960938 57.96875 187.5 C 57.96875 259.039062 115.960938 317.03125 187.5 317.03125 C 259.039062 317.03125 317.03125 259.039062 317.03125 187.5 C 317.03125 115.960938 259.039062 57.96875 187.5 57.96875 Z M 187.5 57.96875 " clip-rule="nonzero"/></clipPath><clipPath id="d9a4058fe9"><path d="M 0.96875 0.96875 L 260.03125 0.96875 L 260.03125 260.03125 L 0.96875 260.03125 Z M 0.96875 0.96875 " clip-rule="nonzero"/></clipPath><clipPath id="f8e9f7be1e"><path d="M 130.5 0.96875 C 58.960938 0.96875 0.96875 58.960938 0.96875 130.5 C 0.96875 202.039062 58.960938 260.03125 130.5 260.03125 C 202.039062 260.03125 260.03125 202.039062 260.03125 130.5 C 260.03125 58.960938 202.039062 0.96875 130.5 0.96875 Z M 130.5 0.96875 " clip-rule="nonzero"/></clipPath><clipPath id="6e13d8e810"><rect x="0" width="261" y="0" height="261"/></clipPath><clipPath id="5087134cb7"><path d="M 57.96875 57.96875 L 316.71875 57.96875 L 316.71875 316.71875 L 57.96875 316.71875 Z M 57.96875 57.96875 " clip-rule="nonzero"/></clipPath><clipPath id="a80e7e41f2"><path d="M 187.496094 57.96875 C 115.960938 57.96875 57.96875 115.960938 57.96875 187.496094 C 57.96875 259.035156 115.960938 317.023438 187.496094 317.023438 C 259.035156 317.023438 317.023438 259.035156 317.023438 187.496094 C 317.023438 115.960938 259.035156 57.96875 187.496094 57.96875 Z M 187.496094 57.96875 " clip-rule="nonzero"/></clipPath><clipPath id="2b1ecdf5c5"><rect x="0" width="175" y="0" height="246"/></clipPath></defs><g clip-path="url(#46e844a598)"><g clip-path="url(#6ca13a884e)"><g transform="matrix(1, 0, 0, 1, 57, 57)"><g clip-path="url(#6e13d8e810)"><g clip-path="url(#d9a4058fe9)"><g clip-path="url(#f8e9f7be1e)"><path fill="#0097b2" d="M 0.96875 0.96875 L 260.03125 0.96875 L 260.03125 260.03125 L 0.96875 260.03125 Z M 0.96875 0.96875 " fill-opacity="1" fill-rule="nonzero"/></g></g></g></g></g></g><g clip-path="url(#5087134cb7)"><g clip-path="url(#a80e7e41f2)"><path stroke-linecap="butt" transform="matrix(0.75, 0, 0, 0.75, 57.970023, 57.970019)" fill="none" stroke-linejoin="miter" d="M 172.701439 -0.00169146 C 77.321224 -0.00169146 -0.00169746 77.32123 -0.00169746 172.701445 C -0.00169746 268.086868 77.321224 345.404581 172.701439 345.404581 C 268.086862 345.404581 345.404575 268.086868 345.404575 172.701445 C 345.404575 77.32123 268.086862 -0.00169146 172.701439 -0.00169146 Z M 172.701439 -0.00169146 " stroke="#bff8fa" stroke-width="8" stroke-opacity="1" stroke-miterlimit="4"/></g></g><g transform="matrix(1, 0, 0, 1, 99, 64)"><g clip-path="url(#2b1ecdf5c5)"><g fill="#bff8fa" fill-opacity="1"><g transform="translate(0.922293, 198.215121)"><g><path d="M 5.859375 0 Z M 58.53125 -154.890625 L 117.296875 -154.890625 L 170.1875 -15.765625 L 170.1875 0 L 5.859375 0 L 5.859375 -15.765625 Z M 112.5625 -34.4375 L 87.578125 -117.96875 L 86.671875 -117.96875 L 60.328125 -34.4375 Z M 112.5625 -34.4375 "/></g></g></g></g></g></svg>